<?xml version="1.0" encoding="UTF-8" standalone="no" ?>
<svg xmlns="http://www.w3.org/2000/svg" width="35.697ex" height="5.428ex" viewBox="0 -1449.5 15778 2399" xmlns:xlink="http://www.w3.org/1999/xlink" aria-hidden="true" style=""><defs><path id="MJX-18-TEX-S3-7B" d="M618 -943L612 -949H582L568 -943Q472 -903 411 -841T332 -703Q327 -682 327 -653T325 -350Q324 -28 323 -18Q317 24 301 61T264 124T221 171T179 205T147 225T132 234Q130 238 130 250Q130 255 130 258T131 264T132 267T134 269T139 272T144 275Q207 308 256 367Q310 436 323 519Q324 529 325 851Q326 1124 326 1154T332 1205Q369 1358 566 1443L582 1450H612L618 1444V1429Q618 1413 616 1411L608 1406Q599 1402 585 1393T552 1372T515 1343T479 1305T449 1257T429 1200Q425 1180 425 1152T423 851Q422 579 422 549T416 498Q407 459 388 424T346 364T297 318T250 284T214 264T197 254L188 251L205 242Q290 200 345 138T416 3Q421 -18 421 -48T423 -349Q423 -397 423 -472Q424 -677 428 -694Q429 -697 429 -699Q434 -722 443 -743T465 -782T491 -816T519 -845T548 -868T574 -886T595 -899T610 -908L616 -910Q618 -912 618 -928V-943Z"></path></defs><g stroke="currentColor" fill="currentColor" stroke-width="0" transform="matrix(1 0 0 -1 0 0)"><g data-mml-node="math"><g data-mml-node="mtext"><text data-variant="normal" transform="matrix(1 0 0 -1 0 0)" font-size="884px" font-family="serif">数</text><text data-variant="normal" transform="translate(884, 0) matrix(1 0 0 -1 0 0)" font-size="884px" font-family="serif">据</text><text data-variant="normal" transform="translate(1768, 0) matrix(1 0 0 -1 0 0)" font-size="884px" font-family="serif">表</text><text data-variant="normal" transform="translate(2652, 0) matrix(1 0 0 -1 0 0)" font-size="884px" font-family="serif">示</text><text data-variant="normal" transform="translate(3536, 0) matrix(1 0 0 -1 0 0)" font-size="884px" font-family="serif">格</text><text data-variant="normal" transform="translate(4420, 0) matrix(1 0 0 -1 0 0)" font-size="884px" font-family="serif">式</text></g><g data-mml-node="mrow" transform="translate(5304, 0)"><g data-mml-node="mo"><use xlink:href="#MJX-18-TEX-S3-7B"></use></g><g data-mml-node="mtable" transform="translate(750, 0)"><g data-mml-node="mtr" transform="translate(0, 600)"><g data-mml-node="mtd"><g data-mml-node="mtext"><text data-variant="normal" transform="matrix(1 0 0 -1 0 0)" font-size="884px" font-family="serif">定</text><text data-variant="normal" transform="translate(884, 0) matrix(1 0 0 -1 0 0)" font-size="884px" font-family="serif">点</text><text data-variant="normal" transform="translate(1768, 0) matrix(1 0 0 -1 0 0)" font-size="884px" font-family="serif">：</text><text data-variant="normal" transform="translate(2652, 0) matrix(1 0 0 -1 0 0)" font-size="884px" font-family="serif">小</text><text data-variant="normal" transform="translate(3536, 0) matrix(1 0 0 -1 0 0)" font-size="884px" font-family="serif">数</text><text data-variant="normal" transform="translate(4420, 0) matrix(1 0 0 -1 0 0)" font-size="884px" font-family="serif">点</text><text data-variant="normal" transform="translate(5304, 0) matrix(1 0 0 -1 0 0)" font-size="884px" font-family="serif">位</text><text data-variant="normal" transform="translate(6188, 0) matrix(1 0 0 -1 0 0)" font-size="884px" font-family="serif">置</text><text data-variant="normal" transform="translate(7072, 0) matrix(1 0 0 -1 0 0)" font-size="884px" font-family="serif">固</text><text data-variant="normal" transform="translate(7956, 0) matrix(1 0 0 -1 0 0)" font-size="884px" font-family="serif">定</text></g></g></g><g data-mml-node="mtr" transform="translate(0, -600)"><g data-mml-node="mtd"><g data-mml-node="mtext"><text data-variant="normal" transform="matrix(1 0 0 -1 0 0)" font-size="884px" font-family="serif">浮</text><text data-variant="normal" transform="translate(884, 0) matrix(1 0 0 -1 0 0)" font-size="884px" font-family="serif">点</text><text data-variant="normal" transform="translate(1768, 0) matrix(1 0 0 -1 0 0)" font-size="884px" font-family="serif">：</text><text data-variant="normal" transform="translate(2652, 0) matrix(1 0 0 -1 0 0)" font-size="884px" font-family="serif">小</text><text data-variant="normal" transform="translate(3536, 0) matrix(1 0 0 -1 0 0)" font-size="884px" font-family="serif">数</text><text data-variant="normal" transform="translate(4420, 0) matrix(1 0 0 -1 0 0)" font-size="884px" font-family="serif">点</text><text data-variant="normal" transform="translate(5304, 0) matrix(1 0 0 -1 0 0)" font-size="884px" font-family="serif">位</text><text data-variant="normal" transform="translate(6188, 0) matrix(1 0 0 -1 0 0)" font-size="884px" font-family="serif">置</text><text data-variant="normal" transform="translate(7072, 0) matrix(1 0 0 -1 0 0)" font-size="884px" font-family="serif">不</text><text data-variant="normal" transform="translate(7956, 0) matrix(1 0 0 -1 0 0)" font-size="884px" font-family="serif">固</text><text data-variant="normal" transform="translate(8840, 0) matrix(1 0 0 -1 0 0)" font-size="884px" font-family="serif">定</text></g></g></g></g><g data-mml-node="mo" transform="translate(10474, 0)"></g></g></g></g></svg>