<?xml version="1.0" encoding="UTF-8" standalone="no" ?>
<svg xmlns="http://www.w3.org/2000/svg" width="46.007ex" height="7.692ex" viewBox="0 -1950 20335 3400" xmlns:xlink="http://www.w3.org/1999/xlink" aria-hidden="true" style=""><defs><path id="MJX-52-TEX-I-1D43C" d="M43 1Q26 1 26 10Q26 12 29 24Q34 43 39 45Q42 46 54 46H60Q120 46 136 53Q137 53 138 54Q143 56 149 77T198 273Q210 318 216 344Q286 624 286 626Q284 630 284 631Q274 637 213 637H193Q184 643 189 662Q193 677 195 680T209 683H213Q285 681 359 681Q481 681 487 683H497Q504 676 504 672T501 655T494 639Q491 637 471 637Q440 637 407 634Q393 631 388 623Q381 609 337 432Q326 385 315 341Q245 65 245 59Q245 52 255 50T307 46H339Q345 38 345 37T342 19Q338 6 332 0H316Q279 2 179 2Q143 2 113 2T65 2T43 1Z"></path><path id="MJX-52-TEX-N-2F" d="M423 750Q432 750 438 744T444 730Q444 725 271 248T92 -240Q85 -250 75 -250Q68 -250 62 -245T56 -231Q56 -221 230 257T407 740Q411 750 423 750Z"></path><path id="MJX-52-TEX-I-1D442" d="M740 435Q740 320 676 213T511 42T304 -22Q207 -22 138 35T51 201Q50 209 50 244Q50 346 98 438T227 601Q351 704 476 704Q514 704 524 703Q621 689 680 617T740 435ZM637 476Q637 565 591 615T476 665Q396 665 322 605Q242 542 200 428T157 216Q157 126 200 73T314 19Q404 19 485 98T608 313Q637 408 637 476Z"></path><path id="MJX-52-TEX-S4-23A7" d="M712 899L718 893V876V865Q718 854 704 846Q627 793 577 710T510 525Q510 524 509 521Q505 493 504 349Q504 345 504 334Q504 277 504 240Q504 -2 503 -4Q502 -8 494 -9T444 -10Q392 -10 390 -9Q387 -8 386 -5Q384 5 384 230Q384 262 384 312T383 382Q383 481 392 535T434 656Q510 806 664 892L677 899H712Z"></path><path id="MJX-52-TEX-S4-23A9" d="M718 -893L712 -899H677L666 -893Q542 -825 468 -714T385 -476Q384 -466 384 -282Q384 3 385 5L389 9Q392 10 444 10Q486 10 494 9T503 4Q504 2 504 -239V-310V-366Q504 -470 508 -513T530 -609Q546 -657 569 -698T617 -767T661 -812T699 -843T717 -856T718 -876V-893Z"></path><path id="MJX-52-TEX-S4-23A8" d="M389 1159Q391 1160 455 1160Q496 1160 498 1159Q501 1158 502 1155Q504 1145 504 924Q504 691 503 682Q494 549 425 439T243 259L229 250L243 241Q349 175 421 66T503 -182Q504 -191 504 -424Q504 -600 504 -629T499 -659H498Q496 -660 444 -660T390 -659Q387 -658 386 -655Q384 -645 384 -425V-282Q384 -176 377 -116T342 10Q325 54 301 92T255 155T214 196T183 222T171 232Q170 233 170 250T171 268Q171 269 191 284T240 331T300 407T354 524T383 679Q384 691 384 925Q384 1152 385 1155L389 1159Z"></path><path id="MJX-52-TEX-S4-23AA" d="M384 150V266Q384 304 389 309Q391 310 455 310Q496 310 498 309Q502 308 503 298Q504 283 504 150Q504 32 504 12T499 -9H498Q496 -10 444 -10T390 -9Q386 -8 385 2Q384 17 384 150Z"></path></defs><g stroke="currentColor" fill="currentColor" stroke-width="0" transform="matrix(1 0 0 -1 0 0)"><g data-mml-node="math"><g data-mml-node="mi"><use xlink:href="#MJX-52-TEX-I-1D43C"></use></g><g data-mml-node="TeXAtom" data-mjx-texclass="ORD" transform="translate(504, 0)"><g data-mml-node="mo"><use xlink:href="#MJX-52-TEX-N-2F"></use></g></g><g data-mml-node="mi" transform="translate(1004, 0)"><use xlink:href="#MJX-52-TEX-I-1D442"></use></g><g data-mml-node="mtext" transform="translate(1767, 0)"><text data-variant="normal" transform="matrix(1 0 0 -1 0 0)" font-size="884px" font-family="serif">总</text><text data-variant="normal" transform="translate(884, 0) matrix(1 0 0 -1 0 0)" font-size="884px" font-family="serif">线</text><text data-variant="normal" transform="translate(1768, 0) matrix(1 0 0 -1 0 0)" font-size="884px" font-family="serif">的</text><text data-variant="normal" transform="translate(2652, 0) matrix(1 0 0 -1 0 0)" font-size="884px" font-family="serif">数</text><text data-variant="normal" transform="translate(3536, 0) matrix(1 0 0 -1 0 0)" font-size="884px" font-family="serif">据</text><text data-variant="normal" transform="translate(4420, 0) matrix(1 0 0 -1 0 0)" font-size="884px" font-family="serif">线</text><text data-variant="normal" transform="translate(5304, 0) matrix(1 0 0 -1 0 0)" font-size="884px" font-family="serif">传</text><text data-variant="normal" transform="translate(6188, 0) matrix(1 0 0 -1 0 0)" font-size="884px" font-family="serif">输</text><text data-variant="normal" transform="translate(7072, 0) matrix(1 0 0 -1 0 0)" font-size="884px" font-family="serif">的</text><text data-variant="normal" transform="translate(7956, 0) matrix(1 0 0 -1 0 0)" font-size="884px" font-family="serif">信</text><text data-variant="normal" transform="translate(8840, 0) matrix(1 0 0 -1 0 0)" font-size="884px" font-family="serif">息</text></g><g data-mml-node="mrow" transform="translate(11491, 0)"><g data-mml-node="mo"><use xlink:href="#MJX-52-TEX-S4-23A7" transform="translate(0, 1051)"></use><use xlink:href="#MJX-52-TEX-S4-23A9" transform="translate(0, -551)"></use><use xlink:href="#MJX-52-TEX-S4-23A8" transform="translate(0, 0)"></use><svg width="889" height="81" y="1060" x="0" viewBox="0 14.3 889 81"><use xlink:href="#MJX-52-TEX-S4-23AA" transform="scale(1, 0.398)"></use></svg><svg width="889" height="81" y="-641" x="0" viewBox="0 14.3 889 81"><use xlink:href="#MJX-52-TEX-S4-23AA" transform="scale(1, 0.398)"></use></svg></g><g data-mml-node="mtable" transform="translate(889, 0)"><g data-mml-node="mtr" transform="translate(0, 1200)"><g data-mml-node="mtd"><g data-mml-node="mi"><use xlink:href="#MJX-52-TEX-I-1D43C"></use></g><g data-mml-node="TeXAtom" data-mjx-texclass="ORD" transform="translate(504, 0)"><g data-mml-node="mo"><use xlink:href="#MJX-52-TEX-N-2F"></use></g></g><g data-mml-node="mi" transform="translate(1004, 0)"><use xlink:href="#MJX-52-TEX-I-1D442"></use></g><g data-mml-node="mtext" transform="translate(1767, 0)"><text data-variant="normal" transform="matrix(1 0 0 -1 0 0)" font-size="884px" font-family="serif">接</text><text data-variant="normal" transform="translate(884, 0) matrix(1 0 0 -1 0 0)" font-size="884px" font-family="serif">口</text><text data-variant="normal" transform="translate(1768, 0) matrix(1 0 0 -1 0 0)" font-size="884px" font-family="serif">中</text><text data-variant="normal" transform="translate(2652, 0) matrix(1 0 0 -1 0 0)" font-size="884px" font-family="serif">的</text><text data-variant="normal" transform="translate(3536, 0) matrix(1 0 0 -1 0 0)" font-size="884px" font-family="serif">命</text><text data-variant="normal" transform="translate(4420, 0) matrix(1 0 0 -1 0 0)" font-size="884px" font-family="serif">令</text><text data-variant="normal" transform="translate(5304, 0) matrix(1 0 0 -1 0 0)" font-size="884px" font-family="serif">字</text></g></g></g><g data-mml-node="mtr" transform="translate(0, 0)"><g data-mml-node="mtd"><g data-mml-node="mi"><use xlink:href="#MJX-52-TEX-I-1D43C"></use></g><g data-mml-node="TeXAtom" data-mjx-texclass="ORD" transform="translate(504, 0)"><g data-mml-node="mo"><use xlink:href="#MJX-52-TEX-N-2F"></use></g></g><g data-mml-node="mi" transform="translate(1004, 0)"><use xlink:href="#MJX-52-TEX-I-1D442"></use></g><g data-mml-node="mtext" transform="translate(1767, 0)"><text data-variant="normal" transform="matrix(1 0 0 -1 0 0)" font-size="884px" font-family="serif">接</text><text data-variant="normal" transform="translate(884, 0) matrix(1 0 0 -1 0 0)" font-size="884px" font-family="serif">口</text><text data-variant="normal" transform="translate(1768, 0) matrix(1 0 0 -1 0 0)" font-size="884px" font-family="serif">中</text><text data-variant="normal" transform="translate(2652, 0) matrix(1 0 0 -1 0 0)" font-size="884px" font-family="serif">的</text><text data-variant="normal" transform="translate(3536, 0) matrix(1 0 0 -1 0 0)" font-size="884px" font-family="serif">状</text><text data-variant="normal" transform="translate(4420, 0) matrix(1 0 0 -1 0 0)" font-size="884px" font-family="serif">态</text><text data-variant="normal" transform="translate(5304, 0) matrix(1 0 0 -1 0 0)" font-size="884px" font-family="serif">字</text></g></g></g><g data-mml-node="mtr" transform="translate(0, -1200)"><g data-mml-node="mtd"><g data-mml-node="mtext"><text data-variant="normal" transform="matrix(1 0 0 -1 0 0)" font-size="884px" font-family="serif">中</text><text data-variant="normal" transform="translate(884, 0) matrix(1 0 0 -1 0 0)" font-size="884px" font-family="serif">断</text><text data-variant="normal" transform="translate(1768, 0) matrix(1 0 0 -1 0 0)" font-size="884px" font-family="serif">信</text><text data-variant="normal" transform="translate(2652, 0) matrix(1 0 0 -1 0 0)" font-size="884px" font-family="serif">号</text></g></g></g></g><g data-mml-node="mo" transform="translate(8844, 0)"></g></g></g></g></svg>