<?xml version="1.0" encoding="UTF-8" standalone="no" ?>
<svg xmlns="http://www.w3.org/2000/svg" width="33.354ex" height="18.552ex" viewBox="0 -4350 14742.4 8200" xmlns:xlink="http://www.w3.org/1999/xlink" aria-hidden="true" style=""><defs><path id="MJX-14-TEX-S4-23A7" d="M712 899L718 893V876V865Q718 854 704 846Q627 793 577 710T510 525Q510 524 509 521Q505 493 504 349Q504 345 504 334Q504 277 504 240Q504 -2 503 -4Q502 -8 494 -9T444 -10Q392 -10 390 -9Q387 -8 386 -5Q384 5 384 230Q384 262 384 312T383 382Q383 481 392 535T434 656Q510 806 664 892L677 899H712Z"></path><path id="MJX-14-TEX-S4-23A9" d="M718 -893L712 -899H677L666 -893Q542 -825 468 -714T385 -476Q384 -466 384 -282Q384 3 385 5L389 9Q392 10 444 10Q486 10 494 9T503 4Q504 2 504 -239V-310V-366Q504 -470 508 -513T530 -609Q546 -657 569 -698T617 -767T661 -812T699 -843T717 -856T718 -876V-893Z"></path><path id="MJX-14-TEX-S4-23A8" d="M389 1159Q391 1160 455 1160Q496 1160 498 1159Q501 1158 502 1155Q504 1145 504 924Q504 691 503 682Q494 549 425 439T243 259L229 250L243 241Q349 175 421 66T503 -182Q504 -191 504 -424Q504 -600 504 -629T499 -659H498Q496 -660 444 -660T390 -659Q387 -658 386 -655Q384 -645 384 -425V-282Q384 -176 377 -116T342 10Q325 54 301 92T255 155T214 196T183 222T171 232Q170 233 170 250T171 268Q171 269 191 284T240 331T300 407T354 524T383 679Q384 691 384 925Q384 1152 385 1155L389 1159Z"></path><path id="MJX-14-TEX-S4-23AA" d="M384 150V266Q384 304 389 309Q391 310 455 310Q496 310 498 309Q502 308 503 298Q504 283 504 150Q504 32 504 12T499 -9H498Q496 -10 444 -10T390 -9Q386 -8 385 2Q384 17 384 150Z"></path><path id="MJX-14-TEX-I-1D43C" d="M43 1Q26 1 26 10Q26 12 29 24Q34 43 39 45Q42 46 54 46H60Q120 46 136 53Q137 53 138 54Q143 56 149 77T198 273Q210 318 216 344Q286 624 286 626Q284 630 284 631Q274 637 213 637H193Q184 643 189 662Q193 677 195 680T209 683H213Q285 681 359 681Q481 681 487 683H497Q504 676 504 672T501 655T494 639Q491 637 471 637Q440 637 407 634Q393 631 388 623Q381 609 337 432Q326 385 315 341Q245 65 245 59Q245 52 255 50T307 46H339Q345 38 345 37T342 19Q338 6 332 0H316Q279 2 179 2Q143 2 113 2T65 2T43 1Z"></path><path id="MJX-14-TEX-I-1D446" d="M308 24Q367 24 416 76T466 197Q466 260 414 284Q308 311 278 321T236 341Q176 383 176 462Q176 523 208 573T273 648Q302 673 343 688T407 704H418H425Q521 704 564 640Q565 640 577 653T603 682T623 704Q624 704 627 704T632 705Q645 705 645 698T617 577T585 459T569 456Q549 456 549 465Q549 471 550 475Q550 478 551 494T553 520Q553 554 544 579T526 616T501 641Q465 662 419 662Q362 662 313 616T263 510Q263 480 278 458T319 427Q323 425 389 408T456 390Q490 379 522 342T554 242Q554 216 546 186Q541 164 528 137T492 78T426 18T332 -20Q320 -22 298 -22Q199 -22 144 33L134 44L106 13Q83 -14 78 -18T65 -22Q52 -22 52 -14Q52 -11 110 221Q112 227 130 227H143Q149 221 149 216Q149 214 148 207T144 186T142 153Q144 114 160 87T203 47T255 29T308 24Z"></path><path id="MJX-14-TEX-I-1D434" d="M208 74Q208 50 254 46Q272 46 272 35Q272 34 270 22Q267 8 264 4T251 0Q249 0 239 0T205 1T141 2Q70 2 50 0H42Q35 7 35 11Q37 38 48 46H62Q132 49 164 96Q170 102 345 401T523 704Q530 716 547 716H555H572Q578 707 578 706L606 383Q634 60 636 57Q641 46 701 46Q726 46 726 36Q726 34 723 22Q720 7 718 4T704 0Q701 0 690 0T651 1T578 2Q484 2 455 0H443Q437 6 437 9T439 27Q443 40 445 43L449 46H469Q523 49 533 63L521 213H283L249 155Q208 86 208 74ZM516 260Q516 271 504 416T490 562L463 519Q447 492 400 412L310 260L413 259Q516 259 516 260Z"></path><path id="MJX-14-TEX-I-1D438" d="M492 213Q472 213 472 226Q472 230 477 250T482 285Q482 316 461 323T364 330H312Q311 328 277 192T243 52Q243 48 254 48T334 46Q428 46 458 48T518 61Q567 77 599 117T670 248Q680 270 683 272Q690 274 698 274Q718 274 718 261Q613 7 608 2Q605 0 322 0H133Q31 0 31 11Q31 13 34 25Q38 41 42 43T65 46Q92 46 125 49Q139 52 144 61Q146 66 215 342T285 622Q285 629 281 629Q273 632 228 634H197Q191 640 191 642T193 659Q197 676 203 680H757Q764 676 764 669Q764 664 751 557T737 447Q735 440 717 440H705Q698 445 698 453L701 476Q704 500 704 528Q704 558 697 578T678 609T643 625T596 632T532 634H485Q397 633 392 631Q388 629 386 622Q385 619 355 499T324 377Q347 376 372 376H398Q464 376 489 391T534 472Q538 488 540 490T557 493Q562 493 565 493T570 492T572 491T574 487T577 483L544 351Q511 218 508 216Q505 213 492 213Z"></path><path id="MJX-14-TEX-I-1D449" d="M52 648Q52 670 65 683H76Q118 680 181 680Q299 680 320 683H330Q336 677 336 674T334 656Q329 641 325 637H304Q282 635 274 635Q245 630 242 620Q242 618 271 369T301 118L374 235Q447 352 520 471T595 594Q599 601 599 609Q599 633 555 637Q537 637 537 648Q537 649 539 661Q542 675 545 679T558 683Q560 683 570 683T604 682T668 681Q737 681 755 683H762Q769 676 769 672Q769 655 760 640Q757 637 743 637Q730 636 719 635T698 630T682 623T670 615T660 608T652 599T645 592L452 282Q272 -9 266 -16Q263 -18 259 -21L241 -22H234Q216 -22 216 -15Q213 -9 177 305Q139 623 138 626Q133 637 76 637H59Q52 642 52 648Z"></path><path id="MJX-14-TEX-N-28" d="M94 250Q94 319 104 381T127 488T164 576T202 643T244 695T277 729T302 750H315H319Q333 750 333 741Q333 738 316 720T275 667T226 581T184 443T167 250T184 58T225 -81T274 -167T316 -220T333 -241Q333 -250 318 -250H315H302L274 -226Q180 -141 137 -14T94 250Z"></path><path id="MJX-14-TEX-I-1D43F" d="M228 637Q194 637 192 641Q191 643 191 649Q191 673 202 682Q204 683 217 683Q271 680 344 680Q485 680 506 683H518Q524 677 524 674T522 656Q517 641 513 637H475Q406 636 394 628Q387 624 380 600T313 336Q297 271 279 198T252 88L243 52Q243 48 252 48T311 46H328Q360 46 379 47T428 54T478 72T522 106T564 161Q580 191 594 228T611 270Q616 273 628 273H641Q647 264 647 262T627 203T583 83T557 9Q555 4 553 3T537 0T494 -1Q483 -1 418 -1T294 0H116Q32 0 32 10Q32 17 34 24Q39 43 44 45Q48 46 59 46H65Q92 46 125 49Q139 52 144 61Q147 65 216 339T285 628Q285 635 228 637Z"></path><path id="MJX-14-TEX-N-2212" d="M84 237T84 250T98 270H679Q694 262 694 250T679 230H98Q84 237 84 250Z"></path><path id="MJX-14-TEX-I-1D435" d="M231 637Q204 637 199 638T194 649Q194 676 205 682Q206 683 335 683Q594 683 608 681Q671 671 713 636T756 544Q756 480 698 429T565 360L555 357Q619 348 660 311T702 219Q702 146 630 78T453 1Q446 0 242 0Q42 0 39 2Q35 5 35 10Q35 17 37 24Q42 43 47 45Q51 46 62 46H68Q95 46 128 49Q142 52 147 61Q150 65 219 339T288 628Q288 635 231 637ZM649 544Q649 574 634 600T585 634Q578 636 493 637Q473 637 451 637T416 636H403Q388 635 384 626Q382 622 352 506Q352 503 351 500L320 374H401Q482 374 494 376Q554 386 601 434T649 544ZM595 229Q595 273 572 302T512 336Q506 337 429 337Q311 337 310 336Q310 334 293 263T258 122L240 52Q240 48 252 48T333 46Q422 46 429 47Q491 54 543 105T595 229Z"></path><path id="MJX-14-TEX-I-1D448" d="M107 637Q73 637 71 641Q70 643 70 649Q70 673 81 682Q83 683 98 683Q139 681 234 681Q268 681 297 681T342 682T362 682Q378 682 378 672Q378 670 376 658Q371 641 366 638H364Q362 638 359 638T352 638T343 637T334 637Q295 636 284 634T266 623Q265 621 238 518T184 302T154 169Q152 155 152 140Q152 86 183 55T269 24Q336 24 403 69T501 205L552 406Q599 598 599 606Q599 633 535 637Q511 637 511 648Q511 650 513 660Q517 676 519 679T529 683Q532 683 561 682T645 680Q696 680 723 681T752 682Q767 682 767 672Q767 650 759 642Q756 637 737 637Q666 633 648 597Q646 592 598 404Q557 235 548 205Q515 105 433 42T263 -22Q171 -22 116 34T60 167V183Q60 201 115 421Q164 622 164 628Q164 635 107 637Z"></path><path id="MJX-14-TEX-N-29" d="M60 749L64 750Q69 750 74 750H86L114 726Q208 641 251 514T294 250Q294 182 284 119T261 12T224 -76T186 -143T145 -194T113 -227T90 -246Q87 -249 86 -250H74Q66 -250 63 -250T58 -247T55 -238Q56 -237 66 -225Q221 -64 221 250T66 725Q56 737 55 738Q55 746 60 749Z"></path><path id="MJX-14-TEX-I-1D443" d="M287 628Q287 635 230 637Q206 637 199 638T192 648Q192 649 194 659Q200 679 203 681T397 683Q587 682 600 680Q664 669 707 631T751 530Q751 453 685 389Q616 321 507 303Q500 302 402 301H307L277 182Q247 66 247 59Q247 55 248 54T255 50T272 48T305 46H336Q342 37 342 35Q342 19 335 5Q330 0 319 0Q316 0 282 1T182 2Q120 2 87 2T51 1Q33 1 33 11Q33 13 36 25Q40 41 44 43T67 46Q94 46 127 49Q141 52 146 61Q149 65 218 339T287 628ZM645 554Q645 567 643 575T634 597T609 619T560 635Q553 636 480 637Q463 637 445 637T416 636T404 636Q391 635 386 627Q384 621 367 550T332 412T314 344Q314 342 395 342H407H430Q542 342 590 392Q617 419 631 471T645 554Z"></path><path id="MJX-14-TEX-I-1D436" d="M50 252Q50 367 117 473T286 641T490 704Q580 704 633 653Q642 643 648 636T656 626L657 623Q660 623 684 649Q691 655 699 663T715 679T725 690L740 705H746Q760 705 760 698Q760 694 728 561Q692 422 692 421Q690 416 687 415T669 413H653Q647 419 647 422Q647 423 648 429T650 449T651 481Q651 552 619 605T510 659Q484 659 454 652T382 628T299 572T226 479Q194 422 175 346T156 222Q156 108 232 58Q280 24 350 24Q441 24 512 92T606 240Q610 253 612 255T628 257Q648 257 648 248Q648 243 647 239Q618 132 523 55T319 -22Q206 -22 128 53T50 252Z"></path><path id="MJX-14-TEX-I-1D43A" d="M50 252Q50 367 117 473T286 641T490 704Q580 704 633 653Q642 643 648 636T656 626L657 623Q660 623 684 649Q691 655 699 663T715 679T725 690L740 705H746Q760 705 760 698Q760 694 728 561Q692 422 692 421Q690 416 687 415T669 413H653Q647 419 647 422Q647 423 648 429T650 449T651 481Q651 552 619 605T510 659Q492 659 471 656T418 643T357 615T294 567T236 496T189 394T158 260Q156 242 156 221Q156 173 170 136T206 79T256 45T308 28T353 24Q407 24 452 47T514 106Q517 114 529 161T541 214Q541 222 528 224T468 227H431Q425 233 425 235T427 254Q431 267 437 273H454Q494 271 594 271Q634 271 659 271T695 272T707 272Q721 272 721 263Q721 261 719 249Q714 230 709 228Q706 227 694 227Q674 227 653 224Q646 221 643 215T629 164Q620 131 614 108Q589 6 586 3Q584 1 581 1Q571 1 553 21T530 52Q530 53 528 52T522 47Q448 -22 322 -22Q201 -22 126 55T50 252Z"></path><path id="MJX-14-TEX-I-1D445" d="M230 637Q203 637 198 638T193 649Q193 676 204 682Q206 683 378 683Q550 682 564 680Q620 672 658 652T712 606T733 563T739 529Q739 484 710 445T643 385T576 351T538 338L545 333Q612 295 612 223Q612 212 607 162T602 80V71Q602 53 603 43T614 25T640 16Q668 16 686 38T712 85Q717 99 720 102T735 105Q755 105 755 93Q755 75 731 36Q693 -21 641 -21H632Q571 -21 531 4T487 82Q487 109 502 166T517 239Q517 290 474 313Q459 320 449 321T378 323H309L277 193Q244 61 244 59Q244 55 245 54T252 50T269 48T302 46H333Q339 38 339 37T336 19Q332 6 326 0H311Q275 2 180 2Q146 2 117 2T71 2T50 1Q33 1 33 10Q33 12 36 24Q41 43 46 45Q50 46 61 46H67Q94 46 127 49Q141 52 146 61Q149 65 218 339T287 628Q287 635 230 637ZM630 554Q630 586 609 608T523 636Q521 636 500 636T462 637H440Q393 637 386 627Q385 624 352 494T319 361Q319 360 388 360Q466 361 492 367Q556 377 592 426Q608 449 619 486T630 554Z"></path><path id="MJX-14-TEX-N-32" d="M109 429Q82 429 66 447T50 491Q50 562 103 614T235 666Q326 666 387 610T449 465Q449 422 429 383T381 315T301 241Q265 210 201 149L142 93L218 92Q375 92 385 97Q392 99 409 186V189H449V186Q448 183 436 95T421 3V0H50V19V31Q50 38 56 46T86 81Q115 113 136 137Q145 147 170 174T204 211T233 244T261 278T284 308T305 340T320 369T333 401T340 431T343 464Q343 527 309 573T212 619Q179 619 154 602T119 569T109 550Q109 549 114 549Q132 549 151 535T170 489Q170 464 154 447T109 429Z"></path><path id="MJX-14-TEX-N-33" d="M127 463Q100 463 85 480T69 524Q69 579 117 622T233 665Q268 665 277 664Q351 652 390 611T430 522Q430 470 396 421T302 350L299 348Q299 347 308 345T337 336T375 315Q457 262 457 175Q457 96 395 37T238 -22Q158 -22 100 21T42 130Q42 158 60 175T105 193Q133 193 151 175T169 130Q169 119 166 110T159 94T148 82T136 74T126 70T118 67L114 66Q165 21 238 21Q293 21 321 74Q338 107 338 175V195Q338 290 274 322Q259 328 213 329L171 330L168 332Q166 335 166 348Q166 366 174 366Q202 366 232 371Q266 376 294 413T322 525V533Q322 590 287 612Q265 626 240 626Q208 626 181 615T143 592T132 580H135Q138 579 143 578T153 573T165 566T175 555T183 540T186 520Q186 498 172 481T127 463Z"></path></defs><g stroke="currentColor" fill="currentColor" stroke-width="0" transform="matrix(1 0 0 -1 0 0)"><g data-mml-node="math"><g data-mml-node="mtext"><text data-variant="normal" transform="matrix(1 0 0 -1 0 0)" font-size="884px" font-family="serif">总</text><text data-variant="normal" transform="translate(884, 0) matrix(1 0 0 -1 0 0)" font-size="884px" font-family="serif">线</text><text data-variant="normal" transform="translate(1768, 0) matrix(1 0 0 -1 0 0)" font-size="884px" font-family="serif">标</text><text data-variant="normal" transform="translate(2652, 0) matrix(1 0 0 -1 0 0)" font-size="884px" font-family="serif">准</text></g><g data-mml-node="mrow" transform="translate(3536, 0)"><g data-mml-node="mo"><use xlink:href="#MJX-14-TEX-S4-23A7" transform="translate(0, 3451)"></use><use xlink:href="#MJX-14-TEX-S4-23A9" transform="translate(0, -2951)"></use><use xlink:href="#MJX-14-TEX-S4-23A8" transform="translate(0, 0)"></use><svg width="889" height="2481" y="1060" x="0" viewBox="0 437.2 889 2481"><use xlink:href="#MJX-14-TEX-S4-23AA" transform="scale(1, 12.202)"></use></svg><svg width="889" height="2481" y="-3041" x="0" viewBox="0 437.2 889 2481"><use xlink:href="#MJX-14-TEX-S4-23AA" transform="scale(1, 12.202)"></use></svg></g><g data-mml-node="mtable" transform="translate(889, 0)"><g data-mml-node="mtr" transform="translate(0, 3600)"><g data-mml-node="mtd"><g data-mml-node="mi"><use xlink:href="#MJX-14-TEX-I-1D43C"></use></g><g data-mml-node="mi" transform="translate(504, 0)"><use xlink:href="#MJX-14-TEX-I-1D446"></use></g><g data-mml-node="mi" transform="translate(1149, 0)"><use xlink:href="#MJX-14-TEX-I-1D434"></use></g><g data-mml-node="mtext" transform="translate(1899, 0)"><text data-variant="normal" transform="matrix(1 0 0 -1 0 0)" font-size="884px" font-family="serif">总</text><text data-variant="normal" transform="translate(884, 0) matrix(1 0 0 -1 0 0)" font-size="884px" font-family="serif">线</text></g></g></g><g data-mml-node="mtr" transform="translate(0, 2400)"><g data-mml-node="mtd"><g data-mml-node="mi"><use xlink:href="#MJX-14-TEX-I-1D438"></use></g><g data-mml-node="mi" transform="translate(764, 0)"><use xlink:href="#MJX-14-TEX-I-1D43C"></use></g><g data-mml-node="mi" transform="translate(1268, 0)"><use xlink:href="#MJX-14-TEX-I-1D446"></use></g><g data-mml-node="mi" transform="translate(1913, 0)"><use xlink:href="#MJX-14-TEX-I-1D434"></use></g><g data-mml-node="mtext" transform="translate(2663, 0)"><text data-variant="normal" transform="matrix(1 0 0 -1 0 0)" font-size="884px" font-family="serif">总</text><text data-variant="normal" transform="translate(884, 0) matrix(1 0 0 -1 0 0)" font-size="884px" font-family="serif">线</text></g></g></g><g data-mml-node="mtr" transform="translate(0, 1200)"><g data-mml-node="mtd"><g data-mml-node="mi"><use xlink:href="#MJX-14-TEX-I-1D449"></use></g><g data-mml-node="mi" transform="translate(769, 0)"><use xlink:href="#MJX-14-TEX-I-1D438"></use></g><g data-mml-node="mi" transform="translate(1533, 0)"><use xlink:href="#MJX-14-TEX-I-1D446"></use></g><g data-mml-node="mi" transform="translate(2178, 0)"><use xlink:href="#MJX-14-TEX-I-1D434"></use></g><g data-mml-node="mrow" transform="translate(2928, 0)"><g data-mml-node="mo"><use xlink:href="#MJX-14-TEX-N-28"></use></g><g data-mml-node="mi" transform="translate(389, 0)"><use xlink:href="#MJX-14-TEX-I-1D449"></use></g><g data-mml-node="mi" transform="translate(1158, 0)"><use xlink:href="#MJX-14-TEX-I-1D43F"></use></g><g data-mml-node="mo" transform="translate(2061.2, 0)"><use xlink:href="#MJX-14-TEX-N-2212"></use></g><g data-mml-node="mi" transform="translate(3061.4, 0)"><use xlink:href="#MJX-14-TEX-I-1D435"></use></g><g data-mml-node="mi" transform="translate(3820.4, 0)"><use xlink:href="#MJX-14-TEX-I-1D448"></use></g><g data-mml-node="mi" transform="translate(4587.4, 0)"><use xlink:href="#MJX-14-TEX-I-1D446"></use></g><g data-mml-node="mo" transform="translate(5232.4, 0)"><use xlink:href="#MJX-14-TEX-N-29"></use></g></g><g data-mml-node="mtext" transform="translate(8549.4, 0)"><text data-variant="normal" transform="matrix(1 0 0 -1 0 0)" font-size="884px" font-family="serif">总</text><text data-variant="normal" transform="translate(884, 0) matrix(1 0 0 -1 0 0)" font-size="884px" font-family="serif">线</text></g></g></g><g data-mml-node="mtr" transform="translate(0, 0)"><g data-mml-node="mtd"><g data-mml-node="mi"><use xlink:href="#MJX-14-TEX-I-1D443"></use></g><g data-mml-node="mi" transform="translate(751, 0)"><use xlink:href="#MJX-14-TEX-I-1D436"></use></g><g data-mml-node="mi" transform="translate(1511, 0)"><use xlink:href="#MJX-14-TEX-I-1D43C"></use></g><g data-mml-node="mtext" transform="translate(2015, 0)"><text data-variant="normal" transform="matrix(1 0 0 -1 0 0)" font-size="884px" font-family="serif">总</text><text data-variant="normal" transform="translate(884, 0) matrix(1 0 0 -1 0 0)" font-size="884px" font-family="serif">线</text></g></g></g><g data-mml-node="mtr" transform="translate(0, -1200)"><g data-mml-node="mtd"><g data-mml-node="mi"><use xlink:href="#MJX-14-TEX-I-1D434"></use></g><g data-mml-node="mi" transform="translate(750, 0)"><use xlink:href="#MJX-14-TEX-I-1D43A"></use></g><g data-mml-node="mi" transform="translate(1536, 0)"><use xlink:href="#MJX-14-TEX-I-1D443"></use></g><g data-mml-node="mtext" transform="translate(2287, 0)"><text data-variant="normal" transform="matrix(1 0 0 -1 0 0)" font-size="884px" font-family="serif">总</text><text data-variant="normal" transform="translate(884, 0) matrix(1 0 0 -1 0 0)" font-size="884px" font-family="serif">线</text></g></g></g><g data-mml-node="mtr" transform="translate(0, -2400)"><g data-mml-node="mtd"><g data-mml-node="mi"><use xlink:href="#MJX-14-TEX-I-1D445"></use></g><g data-mml-node="mi" transform="translate(759, 0)"><use xlink:href="#MJX-14-TEX-I-1D446"></use></g><g data-mml-node="mo" transform="translate(1626.2, 0)"><use xlink:href="#MJX-14-TEX-N-2212"></use></g><g data-mml-node="mn" transform="translate(2626.4, 0)"><use xlink:href="#MJX-14-TEX-N-32"></use><use xlink:href="#MJX-14-TEX-N-33" transform="translate(500, 0)"></use><use xlink:href="#MJX-14-TEX-N-32" transform="translate(1000, 0)"></use></g><g data-mml-node="mi" transform="translate(4126.4, 0)"><use xlink:href="#MJX-14-TEX-I-1D436"></use></g><g data-mml-node="mtext" transform="translate(4886.4, 0)"><text data-variant="normal" transform="matrix(1 0 0 -1 0 0)" font-size="884px" font-family="serif">总</text><text data-variant="normal" transform="translate(884, 0) matrix(1 0 0 -1 0 0)" font-size="884px" font-family="serif">线</text></g></g></g><g data-mml-node="mtr" transform="translate(0, -3600)"><g data-mml-node="mtd"><g data-mml-node="mi"><use xlink:href="#MJX-14-TEX-I-1D448"></use></g><g data-mml-node="mi" transform="translate(767, 0)"><use xlink:href="#MJX-14-TEX-I-1D446"></use></g><g data-mml-node="mi" transform="translate(1412, 0)"><use xlink:href="#MJX-14-TEX-I-1D435"></use></g><g data-mml-node="mtext" transform="translate(2171, 0)"><text data-variant="normal" transform="matrix(1 0 0 -1 0 0)" font-size="884px" font-family="serif">总</text><text data-variant="normal" transform="translate(884, 0) matrix(1 0 0 -1 0 0)" font-size="884px" font-family="serif">线</text></g></g></g></g><g data-mml-node="mo" transform="translate(11206.4, 0)"></g></g></g></g></svg>