<?xml version="1.0" encoding="UTF-8" standalone="no" ?>
<svg xmlns="http://www.w3.org/2000/svg" width="28.013ex" height="5.285ex" viewBox="0 -1426 12381.6 2336" xmlns:xlink="http://www.w3.org/1999/xlink" aria-hidden="true" style=""><defs><path id="MJX-8-TEX-N-3D" d="M56 347Q56 360 70 367H707Q722 359 722 347Q722 336 708 328L390 327H72Q56 332 56 347ZM56 153Q56 168 72 173H708Q722 163 722 153Q722 140 707 133H70Q56 140 56 153Z"></path></defs><g stroke="currentColor" fill="currentColor" stroke-width="0" transform="matrix(1 0 0 -1 0 0)"><g data-mml-node="math"><g data-mml-node="mtext"><text data-variant="normal" transform="matrix(1 0 0 -1 0 0)" font-size="884px" font-family="serif">总</text><text data-variant="normal" transform="translate(884, 0) matrix(1 0 0 -1 0 0)" font-size="884px" font-family="serif">线</text><text data-variant="normal" transform="translate(1768, 0) matrix(1 0 0 -1 0 0)" font-size="884px" font-family="serif">工</text><text data-variant="normal" transform="translate(2652, 0) matrix(1 0 0 -1 0 0)" font-size="884px" font-family="serif">作</text><text data-variant="normal" transform="translate(3536, 0) matrix(1 0 0 -1 0 0)" font-size="884px" font-family="serif">频</text><text data-variant="normal" transform="translate(4420, 0) matrix(1 0 0 -1 0 0)" font-size="884px" font-family="serif">率</text></g><g data-mml-node="mo" transform="translate(5581.8, 0)"><use xlink:href="#MJX-8-TEX-N-3D"></use></g><g data-mml-node="mfrac" transform="translate(6637.6, 0)"><g data-mml-node="mtext" transform="translate(220, 676)"><text data-variant="normal" transform="matrix(1 0 0 -1 0 0)" font-size="884px" font-family="serif">总</text><text data-variant="normal" transform="translate(884, 0) matrix(1 0 0 -1 0 0)" font-size="884px" font-family="serif">线</text><text data-variant="normal" transform="translate(1768, 0) matrix(1 0 0 -1 0 0)" font-size="884px" font-family="serif">时</text><text data-variant="normal" transform="translate(2652, 0) matrix(1 0 0 -1 0 0)" font-size="884px" font-family="serif">钟</text><text data-variant="normal" transform="translate(3536, 0) matrix(1 0 0 -1 0 0)" font-size="884px" font-family="serif">频</text><text data-variant="normal" transform="translate(4420, 0) matrix(1 0 0 -1 0 0)" font-size="884px" font-family="serif">率</text></g><g data-mml-node="mrow" transform="translate(1407.1, -710)"><g data-mml-node="mo"><text data-variant="normal" transform="matrix(1 0 0 -1 0 0)" font-size="884px" font-family="serif">周</text><text data-variant="normal" transform="translate(884, 0) matrix(1 0 0 -1 0 0)" font-size="884px" font-family="serif">期</text></g><g data-mml-node="mtext" transform="translate(2045.8, 0)"><text data-variant="normal" transform="matrix(1 0 0 -1 0 0)" font-size="884px" font-family="serif">数</text></g></g><rect width="5504" height="60" x="120" y="220"></rect></g></g></g></svg>