<?xml version="1.0" encoding="UTF-8" standalone="no" ?>
<svg xmlns="http://www.w3.org/2000/svg" width="63.85ex" height="31.219ex" viewBox="0 -7149.5 28221.6 13799" xmlns:xlink="http://www.w3.org/1999/xlink" aria-hidden="true" style=""><defs><path id="MJX-14-TEX-S4-23A7" d="M712 899L718 893V876V865Q718 854 704 846Q627 793 577 710T510 525Q510 524 509 521Q505 493 504 349Q504 345 504 334Q504 277 504 240Q504 -2 503 -4Q502 -8 494 -9T444 -10Q392 -10 390 -9Q387 -8 386 -5Q384 5 384 230Q384 262 384 312T383 382Q383 481 392 535T434 656Q510 806 664 892L677 899H712Z"></path><path id="MJX-14-TEX-S4-23A9" d="M718 -893L712 -899H677L666 -893Q542 -825 468 -714T385 -476Q384 -466 384 -282Q384 3 385 5L389 9Q392 10 444 10Q486 10 494 9T503 4Q504 2 504 -239V-310V-366Q504 -470 508 -513T530 -609Q546 -657 569 -698T617 -767T661 -812T699 -843T717 -856T718 -876V-893Z"></path><path id="MJX-14-TEX-S4-23A8" d="M389 1159Q391 1160 455 1160Q496 1160 498 1159Q501 1158 502 1155Q504 1145 504 924Q504 691 503 682Q494 549 425 439T243 259L229 250L243 241Q349 175 421 66T503 -182Q504 -191 504 -424Q504 -600 504 -629T499 -659H498Q496 -660 444 -660T390 -659Q387 -658 386 -655Q384 -645 384 -425V-282Q384 -176 377 -116T342 10Q325 54 301 92T255 155T214 196T183 222T171 232Q170 233 170 250T171 268Q171 269 191 284T240 331T300 407T354 524T383 679Q384 691 384 925Q384 1152 385 1155L389 1159Z"></path><path id="MJX-14-TEX-S4-23AA" d="M384 150V266Q384 304 389 309Q391 310 455 310Q496 310 498 309Q502 308 503 298Q504 283 504 150Q504 32 504 12T499 -9H498Q496 -10 444 -10T390 -9Q386 -8 385 2Q384 17 384 150Z"></path><path id="MJX-14-TEX-N-28" d="M94 250Q94 319 104 381T127 488T164 576T202 643T244 695T277 729T302 750H315H319Q333 750 333 741Q333 738 316 720T275 667T226 581T184 443T167 250T184 58T225 -81T274 -167T316 -220T333 -241Q333 -250 318 -250H315H302L274 -226Q180 -141 137 -14T94 250Z"></path><path id="MJX-14-TEX-I-1D445" d="M230 637Q203 637 198 638T193 649Q193 676 204 682Q206 683 378 683Q550 682 564 680Q620 672 658 652T712 606T733 563T739 529Q739 484 710 445T643 385T576 351T538 338L545 333Q612 295 612 223Q612 212 607 162T602 80V71Q602 53 603 43T614 25T640 16Q668 16 686 38T712 85Q717 99 720 102T735 105Q755 105 755 93Q755 75 731 36Q693 -21 641 -21H632Q571 -21 531 4T487 82Q487 109 502 166T517 239Q517 290 474 313Q459 320 449 321T378 323H309L277 193Q244 61 244 59Q244 55 245 54T252 50T269 48T302 46H333Q339 38 339 37T336 19Q332 6 326 0H311Q275 2 180 2Q146 2 117 2T71 2T50 1Q33 1 33 10Q33 12 36 24Q41 43 46 45Q50 46 61 46H67Q94 46 127 49Q141 52 146 61Q149 65 218 339T287 628Q287 635 230 637ZM630 554Q630 586 609 608T523 636Q521 636 500 636T462 637H440Q393 637 386 627Q385 624 352 494T319 361Q319 360 388 360Q466 361 492 367Q556 377 592 426Q608 449 619 486T630 554Z"></path><path id="MJX-14-TEX-I-1D434" d="M208 74Q208 50 254 46Q272 46 272 35Q272 34 270 22Q267 8 264 4T251 0Q249 0 239 0T205 1T141 2Q70 2 50 0H42Q35 7 35 11Q37 38 48 46H62Q132 49 164 96Q170 102 345 401T523 704Q530 716 547 716H555H572Q578 707 578 706L606 383Q634 60 636 57Q641 46 701 46Q726 46 726 36Q726 34 723 22Q720 7 718 4T704 0Q701 0 690 0T651 1T578 2Q484 2 455 0H443Q437 6 437 9T439 27Q443 40 445 43L449 46H469Q523 49 533 63L521 213H283L249 155Q208 86 208 74ZM516 260Q516 271 504 416T490 562L463 519Q447 492 400 412L310 260L413 259Q516 259 516 260Z"></path><path id="MJX-14-TEX-I-1D440" d="M289 629Q289 635 232 637Q208 637 201 638T194 648Q194 649 196 659Q197 662 198 666T199 671T201 676T203 679T207 681T212 683T220 683T232 684Q238 684 262 684T307 683Q386 683 398 683T414 678Q415 674 451 396L487 117L510 154Q534 190 574 254T662 394Q837 673 839 675Q840 676 842 678T846 681L852 683H948Q965 683 988 683T1017 684Q1051 684 1051 673Q1051 668 1048 656T1045 643Q1041 637 1008 637Q968 636 957 634T939 623Q936 618 867 340T797 59Q797 55 798 54T805 50T822 48T855 46H886Q892 37 892 35Q892 19 885 5Q880 0 869 0Q864 0 828 1T736 2Q675 2 644 2T609 1Q592 1 592 11Q592 13 594 25Q598 41 602 43T625 46Q652 46 685 49Q699 52 704 61Q706 65 742 207T813 490T848 631L654 322Q458 10 453 5Q451 4 449 3Q444 0 433 0Q418 0 415 7Q413 11 374 317L335 624L267 354Q200 88 200 79Q206 46 272 46H282Q288 41 289 37T286 19Q282 3 278 1Q274 0 267 0Q265 0 255 0T221 1T157 2Q127 2 95 1T58 0Q43 0 39 2T35 11Q35 13 38 25T43 40Q45 46 65 46Q135 46 154 86Q158 92 223 354T289 629Z"></path><path id="MJX-14-TEX-N-29" d="M60 749L64 750Q69 750 74 750H86L114 726Q208 641 251 514T294 250Q294 182 284 119T261 12T224 -76T186 -143T145 -194T113 -227T90 -246Q87 -249 86 -250H74Q66 -250 63 -250T58 -247T55 -238Q56 -237 66 -225Q221 -64 221 250T66 725Q56 737 55 738Q55 746 60 749Z"></path><path id="MJX-14-TEX-S3-7B" d="M618 -943L612 -949H582L568 -943Q472 -903 411 -841T332 -703Q327 -682 327 -653T325 -350Q324 -28 323 -18Q317 24 301 61T264 124T221 171T179 205T147 225T132 234Q130 238 130 250Q130 255 130 258T131 264T132 267T134 269T139 272T144 275Q207 308 256 367Q310 436 323 519Q324 529 325 851Q326 1124 326 1154T332 1205Q369 1358 566 1443L582 1450H612L618 1444V1429Q618 1413 616 1411L608 1406Q599 1402 585 1393T552 1372T515 1343T479 1305T449 1257T429 1200Q425 1180 425 1152T423 851Q422 579 422 549T416 498Q407 459 388 424T346 364T297 318T250 284T214 264T197 254L188 251L205 242Q290 200 345 138T416 3Q421 -18 421 -48T423 -349Q423 -397 423 -472Q424 -677 428 -694Q429 -697 429 -699Q434 -722 443 -743T465 -782T491 -816T519 -845T548 -868T574 -886T595 -899T610 -908L616 -910Q618 -912 618 -928V-943Z"></path><path id="MJX-14-TEX-I-1D442" d="M740 435Q740 320 676 213T511 42T304 -22Q207 -22 138 35T51 201Q50 209 50 244Q50 346 98 438T227 601Q351 704 476 704Q514 704 524 703Q621 689 680 617T740 435ZM637 476Q637 565 591 615T476 665Q396 665 322 605Q242 542 200 428T157 216Q157 126 200 73T314 19Q404 19 485 98T608 313Q637 408 637 476Z"></path><path id="MJX-14-TEX-I-1D443" d="M287 628Q287 635 230 637Q206 637 199 638T192 648Q192 649 194 659Q200 679 203 681T397 683Q587 682 600 680Q664 669 707 631T751 530Q751 453 685 389Q616 321 507 303Q500 302 402 301H307L277 182Q247 66 247 59Q247 55 248 54T255 50T272 48T305 46H336Q342 37 342 35Q342 19 335 5Q330 0 319 0Q316 0 282 1T182 2Q120 2 87 2T51 1Q33 1 33 11Q33 13 36 25Q40 41 44 43T67 46Q94 46 127 49Q141 52 146 61Q149 65 218 339T287 628ZM645 554Q645 567 643 575T634 597T609 619T560 635Q553 636 480 637Q463 637 445 637T416 636T404 636Q391 635 386 627Q384 621 367 550T332 412T314 344Q314 342 395 342H407H430Q542 342 590 392Q617 419 631 471T645 554Z"></path><path id="MJX-14-TEX-I-1D438" d="M492 213Q472 213 472 226Q472 230 477 250T482 285Q482 316 461 323T364 330H312Q311 328 277 192T243 52Q243 48 254 48T334 46Q428 46 458 48T518 61Q567 77 599 117T670 248Q680 270 683 272Q690 274 698 274Q718 274 718 261Q613 7 608 2Q605 0 322 0H133Q31 0 31 11Q31 13 34 25Q38 41 42 43T65 46Q92 46 125 49Q139 52 144 61Q146 66 215 342T285 622Q285 629 281 629Q273 632 228 634H197Q191 640 191 642T193 659Q197 676 203 680H757Q764 676 764 669Q764 664 751 557T737 447Q735 440 717 440H705Q698 445 698 453L701 476Q704 500 704 528Q704 558 697 578T678 609T643 625T596 632T532 634H485Q397 633 392 631Q388 629 386 622Q385 619 355 499T324 377Q347 376 372 376H398Q464 376 489 391T534 472Q538 488 540 490T557 493Q562 493 565 493T570 492T572 491T574 487T577 483L544 351Q511 218 508 216Q505 213 492 213Z"></path><path id="MJX-14-TEX-I-1D439" d="M48 1Q31 1 31 11Q31 13 34 25Q38 41 42 43T65 46Q92 46 125 49Q139 52 144 61Q146 66 215 342T285 622Q285 629 281 629Q273 632 228 634H197Q191 640 191 642T193 659Q197 676 203 680H742Q749 676 749 669Q749 664 736 557T722 447Q720 440 702 440H690Q683 445 683 453Q683 454 686 477T689 530Q689 560 682 579T663 610T626 626T575 633T503 634H480Q398 633 393 631Q388 629 386 623Q385 622 352 492L320 363H375Q378 363 398 363T426 364T448 367T472 374T489 386Q502 398 511 419T524 457T529 475Q532 480 548 480H560Q567 475 567 470Q567 467 536 339T502 207Q500 200 482 200H470Q463 206 463 212Q463 215 468 234T473 274Q473 303 453 310T364 317H309L277 190Q245 66 245 60Q245 46 334 46H359Q365 40 365 39T363 19Q359 6 353 0H336Q295 2 185 2Q120 2 86 2T48 1Z"></path><path id="MJX-14-TEX-I-1D459" d="M117 59Q117 26 142 26Q179 26 205 131Q211 151 215 152Q217 153 225 153H229Q238 153 241 153T246 151T248 144Q247 138 245 128T234 90T214 43T183 6T137 -11Q101 -11 70 11T38 85Q38 97 39 102L104 360Q167 615 167 623Q167 626 166 628T162 632T157 634T149 635T141 636T132 637T122 637Q112 637 109 637T101 638T95 641T94 647Q94 649 96 661Q101 680 107 682T179 688Q194 689 213 690T243 693T254 694Q266 694 266 686Q266 675 193 386T118 83Q118 81 118 75T117 65V59Z"></path><path id="MJX-14-TEX-I-1D44E" d="M33 157Q33 258 109 349T280 441Q331 441 370 392Q386 422 416 422Q429 422 439 414T449 394Q449 381 412 234T374 68Q374 43 381 35T402 26Q411 27 422 35Q443 55 463 131Q469 151 473 152Q475 153 483 153H487Q506 153 506 144Q506 138 501 117T481 63T449 13Q436 0 417 -8Q409 -10 393 -10Q359 -10 336 5T306 36L300 51Q299 52 296 50Q294 48 292 46Q233 -10 172 -10Q117 -10 75 30T33 157ZM351 328Q351 334 346 350T323 385T277 405Q242 405 210 374T160 293Q131 214 119 129Q119 126 119 118T118 106Q118 61 136 44T179 26Q217 26 254 59T298 110Q300 114 325 217T351 328Z"></path><path id="MJX-14-TEX-I-1D460" d="M131 289Q131 321 147 354T203 415T300 442Q362 442 390 415T419 355Q419 323 402 308T364 292Q351 292 340 300T328 326Q328 342 337 354T354 372T367 378Q368 378 368 379Q368 382 361 388T336 399T297 405Q249 405 227 379T204 326Q204 301 223 291T278 274T330 259Q396 230 396 163Q396 135 385 107T352 51T289 7T195 -10Q118 -10 86 19T53 87Q53 126 74 143T118 160Q133 160 146 151T160 120Q160 94 142 76T111 58Q109 57 108 57T107 55Q108 52 115 47T146 34T201 27Q237 27 263 38T301 66T318 97T323 122Q323 150 302 164T254 181T195 196T148 231Q131 256 131 289Z"></path><path id="MJX-14-TEX-I-210E" d="M137 683Q138 683 209 688T282 694Q294 694 294 685Q294 674 258 534Q220 386 220 383Q220 381 227 388Q288 442 357 442Q411 442 444 415T478 336Q478 285 440 178T402 50Q403 36 407 31T422 26Q450 26 474 56T513 138Q516 149 519 151T535 153Q555 153 555 145Q555 144 551 130Q535 71 500 33Q466 -10 419 -10H414Q367 -10 346 17T325 74Q325 90 361 192T398 345Q398 404 354 404H349Q266 404 205 306L198 293L164 158Q132 28 127 16Q114 -11 83 -11Q69 -11 59 -2T48 16Q48 30 121 320L195 616Q195 629 188 632T149 637H128Q122 643 122 645T124 664Q129 683 137 683Z"></path><path id="MJX-14-TEX-I-1D452" d="M39 168Q39 225 58 272T107 350T174 402T244 433T307 442H310Q355 442 388 420T421 355Q421 265 310 237Q261 224 176 223Q139 223 138 221Q138 219 132 186T125 128Q125 81 146 54T209 26T302 45T394 111Q403 121 406 121Q410 121 419 112T429 98T420 82T390 55T344 24T281 -1T205 -11Q126 -11 83 42T39 168ZM373 353Q367 405 305 405Q272 405 244 391T199 357T170 316T154 280T149 261Q149 260 169 260Q282 260 327 284T373 353Z"></path><path id="MJX-14-TEX-I-1D45A" d="M21 287Q22 293 24 303T36 341T56 388T88 425T132 442T175 435T205 417T221 395T229 376L231 369Q231 367 232 367L243 378Q303 442 384 442Q401 442 415 440T441 433T460 423T475 411T485 398T493 385T497 373T500 364T502 357L510 367Q573 442 659 442Q713 442 746 415T780 336Q780 285 742 178T704 50Q705 36 709 31T724 26Q752 26 776 56T815 138Q818 149 821 151T837 153Q857 153 857 145Q857 144 853 130Q845 101 831 73T785 17T716 -10Q669 -10 648 17T627 73Q627 92 663 193T700 345Q700 404 656 404H651Q565 404 506 303L499 291L466 157Q433 26 428 16Q415 -11 385 -11Q372 -11 364 -4T353 8T350 18Q350 29 384 161L420 307Q423 322 423 345Q423 404 379 404H374Q288 404 229 303L222 291L189 157Q156 26 151 16Q138 -11 108 -11Q95 -11 87 -5T76 7T74 17Q74 30 112 181Q151 335 151 342Q154 357 154 369Q154 405 129 405Q107 405 92 377T69 316T57 280Q55 278 41 278H27Q21 284 21 287Z"></path><path id="MJX-14-TEX-I-1D45C" d="M201 -11Q126 -11 80 38T34 156Q34 221 64 279T146 380Q222 441 301 441Q333 441 341 440Q354 437 367 433T402 417T438 387T464 338T476 268Q476 161 390 75T201 -11ZM121 120Q121 70 147 48T206 26Q250 26 289 58T351 142Q360 163 374 216T388 308Q388 352 370 375Q346 405 306 405Q243 405 195 347Q158 303 140 230T121 120Z"></path><path id="MJX-14-TEX-I-1D45F" d="M21 287Q22 290 23 295T28 317T38 348T53 381T73 411T99 433T132 442Q161 442 183 430T214 408T225 388Q227 382 228 382T236 389Q284 441 347 441H350Q398 441 422 400Q430 381 430 363Q430 333 417 315T391 292T366 288Q346 288 334 299T322 328Q322 376 378 392Q356 405 342 405Q286 405 239 331Q229 315 224 298T190 165Q156 25 151 16Q138 -11 108 -11Q95 -11 87 -5T76 7T74 17Q74 30 114 189T154 366Q154 405 128 405Q107 405 92 377T68 316T57 280Q55 278 41 278H27Q21 284 21 287Z"></path><path id="MJX-14-TEX-I-1D466" d="M21 287Q21 301 36 335T84 406T158 442Q199 442 224 419T250 355Q248 336 247 334Q247 331 231 288T198 191T182 105Q182 62 196 45T238 27Q261 27 281 38T312 61T339 94Q339 95 344 114T358 173T377 247Q415 397 419 404Q432 431 462 431Q475 431 483 424T494 412T496 403Q496 390 447 193T391 -23Q363 -106 294 -155T156 -205Q111 -205 77 -183T43 -117Q43 -95 50 -80T69 -58T89 -48T106 -45Q150 -45 150 -87Q150 -107 138 -122T115 -142T102 -147L99 -148Q101 -153 118 -160T152 -167H160Q177 -167 186 -165Q219 -156 247 -127T290 -65T313 -9T321 21L315 17Q309 13 296 6T270 -6Q250 -11 231 -11Q185 -11 150 11T104 82Q103 89 103 113Q103 170 138 262T173 379Q173 380 173 381Q173 390 173 393T169 400T158 404H154Q131 404 112 385T82 344T65 302T57 280Q55 278 41 278H27Q21 284 21 287Z"></path><path id="MJX-14-TEX-I-1D436" d="M50 252Q50 367 117 473T286 641T490 704Q580 704 633 653Q642 643 648 636T656 626L657 623Q660 623 684 649Q691 655 699 663T715 679T725 690L740 705H746Q760 705 760 698Q760 694 728 561Q692 422 692 421Q690 416 687 415T669 413H653Q647 419 647 422Q647 423 648 429T650 449T651 481Q651 552 619 605T510 659Q484 659 454 652T382 628T299 572T226 479Q194 422 175 346T156 222Q156 108 232 58Q280 24 350 24Q441 24 512 92T606 240Q610 253 612 255T628 257Q648 257 648 248Q648 243 647 239Q618 132 523 55T319 -22Q206 -22 128 53T50 252Z"></path><path id="MJX-14-TEX-I-1D450" d="M34 159Q34 268 120 355T306 442Q362 442 394 418T427 355Q427 326 408 306T360 285Q341 285 330 295T319 325T330 359T352 380T366 386H367Q367 388 361 392T340 400T306 404Q276 404 249 390Q228 381 206 359Q162 315 142 235T121 119Q121 73 147 50Q169 26 205 26H209Q321 26 394 111Q403 121 406 121Q410 121 419 112T429 98T420 83T391 55T346 25T282 0T202 -11Q127 -11 81 37T34 159Z"></path></defs><g stroke="currentColor" fill="currentColor" stroke-width="0" transform="matrix(1 0 0 -1 0 0)"><g data-mml-node="math"><g data-mml-node="mo"><text data-variant="normal" transform="matrix(1 0 0 -1 0 0)" font-size="884px" font-family="serif">存</text><text data-variant="normal" transform="translate(884, 0) matrix(1 0 0 -1 0 0)" font-size="884px" font-family="serif">储</text><text data-variant="normal" transform="translate(1768, 0) matrix(1 0 0 -1 0 0)" font-size="884px" font-family="serif">器</text></g><g data-mml-node="mrow" transform="translate(2929.8, 0)"><g data-mml-node="mo"><use xlink:href="#MJX-14-TEX-S4-23A7" transform="translate(0, 6250.5)"></use><use xlink:href="#MJX-14-TEX-S4-23A9" transform="translate(0, -5750.5)"></use><use xlink:href="#MJX-14-TEX-S4-23A8" transform="translate(0, 0)"></use><svg width="889" height="5280.5" y="1060" x="0" viewBox="0 930.6 889 5280.5"><use xlink:href="#MJX-14-TEX-S4-23AA" transform="scale(1, 25.97)"></use></svg><svg width="889" height="5280.5" y="-5840.5" x="0" viewBox="0 930.6 889 5280.5"><use xlink:href="#MJX-14-TEX-S4-23AA" transform="scale(1, 25.97)"></use></svg></g><g data-mml-node="mtable" transform="translate(889, 0)"><g data-mml-node="mtr" transform="translate(0, 3000)"><g data-mml-node="mtd"><g data-mml-node="mo"><text data-variant="normal" transform="matrix(1 0 0 -1 0 0)" font-size="884px" font-family="serif">主</text><text data-variant="normal" transform="translate(884, 0) matrix(1 0 0 -1 0 0)" font-size="884px" font-family="serif">存</text><text data-variant="normal" transform="translate(1768, 0) matrix(1 0 0 -1 0 0)" font-size="884px" font-family="serif">储</text><text data-variant="normal" transform="translate(2652, 0) matrix(1 0 0 -1 0 0)" font-size="884px" font-family="serif">器</text><text data-variant="normal" transform="translate(3536, 0) matrix(1 0 0 -1 0 0)" font-size="884px" font-family="serif">（</text><text data-variant="normal" transform="translate(4420, 0) matrix(1 0 0 -1 0 0)" font-size="884px" font-family="serif">主</text><text data-variant="normal" transform="translate(5304, 0) matrix(1 0 0 -1 0 0)" font-size="884px" font-family="serif">存</text><text data-variant="normal" transform="translate(6188, 0) matrix(1 0 0 -1 0 0)" font-size="884px" font-family="serif">、</text><text data-variant="normal" transform="translate(7072, 0) matrix(1 0 0 -1 0 0)" font-size="884px" font-family="serif">内</text><text data-variant="normal" transform="translate(7956, 0) matrix(1 0 0 -1 0 0)" font-size="884px" font-family="serif">存</text><text data-variant="normal" transform="translate(8840, 0) matrix(1 0 0 -1 0 0)" font-size="884px" font-family="serif">）</text></g><g data-mml-node="mrow" transform="translate(10001.8, 0)"><g data-mml-node="mo"><use xlink:href="#MJX-14-TEX-S4-23A7" transform="translate(0, 3250.5)"></use><use xlink:href="#MJX-14-TEX-S4-23A9" transform="translate(0, -2750.5)"></use><use xlink:href="#MJX-14-TEX-S4-23A8" transform="translate(0, 0)"></use><svg width="889" height="2280.5" y="1060" x="0" viewBox="0 401.9 889 2280.5"><use xlink:href="#MJX-14-TEX-S4-23AA" transform="scale(1, 11.216)"></use></svg><svg width="889" height="2280.5" y="-2840.5" x="0" viewBox="0 401.9 889 2280.5"><use xlink:href="#MJX-14-TEX-S4-23AA" transform="scale(1, 11.216)"></use></svg></g><g data-mml-node="mtable" transform="translate(889, 0)"><g data-mml-node="mtr" transform="translate(0, 2700)"><g data-mml-node="mtd"><g data-mml-node="mtext"><text data-variant="normal" transform="matrix(1 0 0 -1 0 0)" font-size="884px" font-family="serif">随</text><text data-variant="normal" transform="translate(884, 0) matrix(1 0 0 -1 0 0)" font-size="884px" font-family="serif">机</text><text data-variant="normal" transform="translate(1768, 0) matrix(1 0 0 -1 0 0)" font-size="884px" font-family="serif">存</text><text data-variant="normal" transform="translate(2652, 0) matrix(1 0 0 -1 0 0)" font-size="884px" font-family="serif">储</text><text data-variant="normal" transform="translate(3536, 0) matrix(1 0 0 -1 0 0)" font-size="884px" font-family="serif">器</text></g><g data-mml-node="mrow" transform="translate(4420, 0)"><g data-mml-node="mo"><use xlink:href="#MJX-14-TEX-N-28"></use></g><g data-mml-node="mi" transform="translate(389, 0)"><use xlink:href="#MJX-14-TEX-I-1D445"></use></g><g data-mml-node="mi" transform="translate(1148, 0)"><use xlink:href="#MJX-14-TEX-I-1D434"></use></g><g data-mml-node="mi" transform="translate(1898, 0)"><use xlink:href="#MJX-14-TEX-I-1D440"></use></g><g data-mml-node="mo" transform="translate(2949, 0)"><use xlink:href="#MJX-14-TEX-N-29"></use></g></g><g data-mml-node="mrow" transform="translate(7758, 0)"><g data-mml-node="mo"><use xlink:href="#MJX-14-TEX-S3-7B"></use></g><g data-mml-node="mtable" transform="translate(750, 0)"><g data-mml-node="mtr" transform="translate(0, 600)"><g data-mml-node="mtd"><g data-mml-node="mtext"><text data-variant="normal" transform="matrix(1 0 0 -1 0 0)" font-size="884px" font-family="serif">静</text><text data-variant="normal" transform="translate(884, 0) matrix(1 0 0 -1 0 0)" font-size="884px" font-family="serif">态</text></g><g data-mml-node="mi" transform="translate(1768, 0)"><use xlink:href="#MJX-14-TEX-I-1D445"></use></g><g data-mml-node="mi" transform="translate(2527, 0)"><use xlink:href="#MJX-14-TEX-I-1D434"></use></g><g data-mml-node="mi" transform="translate(3277, 0)"><use xlink:href="#MJX-14-TEX-I-1D440"></use></g></g></g><g data-mml-node="mtr" transform="translate(0, -600)"><g data-mml-node="mtd"><g data-mml-node="mtext"><text data-variant="normal" transform="matrix(1 0 0 -1 0 0)" font-size="884px" font-family="serif">动</text><text data-variant="normal" transform="translate(884, 0) matrix(1 0 0 -1 0 0)" font-size="884px" font-family="serif">态</text></g><g data-mml-node="mi" transform="translate(1768, 0)"><use xlink:href="#MJX-14-TEX-I-1D445"></use></g><g data-mml-node="mi" transform="translate(2527, 0)"><use xlink:href="#MJX-14-TEX-I-1D434"></use></g><g data-mml-node="mi" transform="translate(3277, 0)"><use xlink:href="#MJX-14-TEX-I-1D440"></use></g></g></g></g><g data-mml-node="mo" transform="translate(5078, 0)"></g></g></g></g><g data-mml-node="mtr" transform="translate(0, -1299.5)"><g data-mml-node="mtd"><g data-mml-node="mtext"><text data-variant="normal" transform="matrix(1 0 0 -1 0 0)" font-size="884px" font-family="serif">只</text><text data-variant="normal" transform="translate(884, 0) matrix(1 0 0 -1 0 0)" font-size="884px" font-family="serif">读</text><text data-variant="normal" transform="translate(1768, 0) matrix(1 0 0 -1 0 0)" font-size="884px" font-family="serif">存</text><text data-variant="normal" transform="translate(2652, 0) matrix(1 0 0 -1 0 0)" font-size="884px" font-family="serif">储</text><text data-variant="normal" transform="translate(3536, 0) matrix(1 0 0 -1 0 0)" font-size="884px" font-family="serif">器</text></g><g data-mml-node="mrow" transform="translate(4420, 0)"><g data-mml-node="mo"><use xlink:href="#MJX-14-TEX-N-28"></use></g><g data-mml-node="mi" transform="translate(389, 0)"><use xlink:href="#MJX-14-TEX-I-1D445"></use></g><g data-mml-node="mi" transform="translate(1148, 0)"><use xlink:href="#MJX-14-TEX-I-1D442"></use></g><g data-mml-node="mi" transform="translate(1911, 0)"><use xlink:href="#MJX-14-TEX-I-1D440"></use></g><g data-mml-node="mo" transform="translate(2962, 0)"><use xlink:href="#MJX-14-TEX-N-29"></use></g></g><g data-mml-node="mrow" transform="translate(7771, 0)"><g data-mml-node="mo"><use xlink:href="#MJX-14-TEX-S4-23A7" transform="translate(0, 1951)"></use><use xlink:href="#MJX-14-TEX-S4-23A9" transform="translate(0, -1451)"></use><use xlink:href="#MJX-14-TEX-S4-23A8" transform="translate(0, 0)"></use><svg width="889" height="981" y="1060" x="0" viewBox="0 172.9 889 981"><use xlink:href="#MJX-14-TEX-S4-23AA" transform="scale(1, 4.825)"></use></svg><svg width="889" height="981" y="-1541" x="0" viewBox="0 172.9 889 981"><use xlink:href="#MJX-14-TEX-S4-23AA" transform="scale(1, 4.825)"></use></svg></g><g data-mml-node="mtable" transform="translate(889, 0)"><g data-mml-node="mtr" transform="translate(0, 2100)"><g data-mml-node="mtd" transform="translate(614, 0)"><g data-mml-node="mi"><use xlink:href="#MJX-14-TEX-I-1D440"></use></g><g data-mml-node="mi" transform="translate(1051, 0)"><use xlink:href="#MJX-14-TEX-I-1D445"></use></g><g data-mml-node="mi" transform="translate(1810, 0)"><use xlink:href="#MJX-14-TEX-I-1D442"></use></g><g data-mml-node="mi" transform="translate(2573, 0)"><use xlink:href="#MJX-14-TEX-I-1D440"></use></g></g></g><g data-mml-node="mtr" transform="translate(0, 700)"><g data-mml-node="mtd" transform="translate(764, 0)"><g data-mml-node="mi"><use xlink:href="#MJX-14-TEX-I-1D443"></use></g><g data-mml-node="mi" transform="translate(751, 0)"><use xlink:href="#MJX-14-TEX-I-1D445"></use></g><g data-mml-node="mi" transform="translate(1510, 0)"><use xlink:href="#MJX-14-TEX-I-1D442"></use></g><g data-mml-node="mi" transform="translate(2273, 0)"><use xlink:href="#MJX-14-TEX-I-1D440"></use></g></g></g><g data-mml-node="mtr" transform="translate(0, -700)"><g data-mml-node="mtd" transform="translate(382, 0)"><g data-mml-node="mi"><use xlink:href="#MJX-14-TEX-I-1D438"></use></g><g data-mml-node="mi" transform="translate(764, 0)"><use xlink:href="#MJX-14-TEX-I-1D443"></use></g><g data-mml-node="mi" transform="translate(1515, 0)"><use xlink:href="#MJX-14-TEX-I-1D445"></use></g><g data-mml-node="mi" transform="translate(2274, 0)"><use xlink:href="#MJX-14-TEX-I-1D442"></use></g><g data-mml-node="mi" transform="translate(3037, 0)"><use xlink:href="#MJX-14-TEX-I-1D440"></use></g></g></g><g data-mml-node="mtr" transform="translate(0, -2100)"><g data-mml-node="mtd"><g data-mml-node="mi"><use xlink:href="#MJX-14-TEX-I-1D438"></use></g><g data-mml-node="mi" transform="translate(764, 0)"><use xlink:href="#MJX-14-TEX-I-1D438"></use></g><g data-mml-node="mi" transform="translate(1528, 0)"><use xlink:href="#MJX-14-TEX-I-1D443"></use></g><g data-mml-node="mi" transform="translate(2279, 0)"><use xlink:href="#MJX-14-TEX-I-1D445"></use></g><g data-mml-node="mi" transform="translate(3038, 0)"><use xlink:href="#MJX-14-TEX-I-1D442"></use></g><g data-mml-node="mi" transform="translate(3801, 0)"><use xlink:href="#MJX-14-TEX-I-1D440"></use></g></g></g></g><g data-mml-node="mo" transform="translate(5741, 0)"></g></g></g></g></g><g data-mml-node="mo" transform="translate(14401, 0)"></g></g></g></g><g data-mml-node="mtr" transform="translate(0, -1599.5)"><g data-mml-node="mtd"><g data-mml-node="mtext"><text data-variant="normal" transform="matrix(1 0 0 -1 0 0)" font-size="884px" font-family="serif">闪</text><text data-variant="normal" transform="translate(884, 0) matrix(1 0 0 -1 0 0)" font-size="884px" font-family="serif">存</text><text data-variant="normal" transform="translate(1768, 0) matrix(1 0 0 -1 0 0)" font-size="884px" font-family="serif">存</text><text data-variant="normal" transform="translate(2652, 0) matrix(1 0 0 -1 0 0)" font-size="884px" font-family="serif">储</text><text data-variant="normal" transform="translate(3536, 0) matrix(1 0 0 -1 0 0)" font-size="884px" font-family="serif">器</text></g><g data-mml-node="mrow" transform="translate(4420, 0)"><g data-mml-node="mo"><use xlink:href="#MJX-14-TEX-N-28"></use></g><g data-mml-node="mi" transform="translate(389, 0)"><use xlink:href="#MJX-14-TEX-I-1D439"></use></g><g data-mml-node="mi" transform="translate(1138, 0)"><use xlink:href="#MJX-14-TEX-I-1D459"></use></g><g data-mml-node="mi" transform="translate(1436, 0)"><use xlink:href="#MJX-14-TEX-I-1D44E"></use></g><g data-mml-node="mi" transform="translate(1965, 0)"><use xlink:href="#MJX-14-TEX-I-1D460"></use></g><g data-mml-node="mi" transform="translate(2434, 0)"><use xlink:href="#MJX-14-TEX-I-210E"></use></g><g data-mml-node="mi" transform="translate(3010, 0)"><use xlink:href="#MJX-14-TEX-I-1D440"></use></g><g data-mml-node="mi" transform="translate(4061, 0)"><use xlink:href="#MJX-14-TEX-I-1D452"></use></g><g data-mml-node="mi" transform="translate(4527, 0)"><use xlink:href="#MJX-14-TEX-I-1D45A"></use></g><g data-mml-node="mi" transform="translate(5405, 0)"><use xlink:href="#MJX-14-TEX-I-1D45C"></use></g><g data-mml-node="mi" transform="translate(5890, 0)"><use xlink:href="#MJX-14-TEX-I-1D45F"></use></g><g data-mml-node="mi" transform="translate(6341, 0)"><use xlink:href="#MJX-14-TEX-I-1D466"></use></g><g data-mml-node="mo" transform="translate(6831, 0)"><use xlink:href="#MJX-14-TEX-N-29"></use></g></g></g></g><g data-mml-node="mtr" transform="translate(0, -3999.5)"><g data-mml-node="mtd"><g data-mml-node="mo"><text data-variant="normal" transform="matrix(1 0 0 -1 0 0)" font-size="884px" font-family="serif">辅</text><text data-variant="normal" transform="translate(884, 0) matrix(1 0 0 -1 0 0)" font-size="884px" font-family="serif">助</text><text data-variant="normal" transform="translate(1768, 0) matrix(1 0 0 -1 0 0)" font-size="884px" font-family="serif">存</text><text data-variant="normal" transform="translate(2652, 0) matrix(1 0 0 -1 0 0)" font-size="884px" font-family="serif">储</text><text data-variant="normal" transform="translate(3536, 0) matrix(1 0 0 -1 0 0)" font-size="884px" font-family="serif">器</text><text data-variant="normal" transform="translate(4420, 0) matrix(1 0 0 -1 0 0)" font-size="884px" font-family="serif">（</text><text data-variant="normal" transform="translate(5304, 0) matrix(1 0 0 -1 0 0)" font-size="884px" font-family="serif">辅</text><text data-variant="normal" transform="translate(6188, 0) matrix(1 0 0 -1 0 0)" font-size="884px" font-family="serif">存</text><text data-variant="normal" transform="translate(7072, 0) matrix(1 0 0 -1 0 0)" font-size="884px" font-family="serif">、</text><text data-variant="normal" transform="translate(7956, 0) matrix(1 0 0 -1 0 0)" font-size="884px" font-family="serif">外</text><text data-variant="normal" transform="translate(8840, 0) matrix(1 0 0 -1 0 0)" font-size="884px" font-family="serif">存</text><text data-variant="normal" transform="translate(9724, 0) matrix(1 0 0 -1 0 0)" font-size="884px" font-family="serif">）</text></g><g data-mml-node="mrow" transform="translate(10885.8, 0)"><g data-mml-node="mo"><use xlink:href="#MJX-14-TEX-S4-23A7" transform="translate(0, 1051)"></use><use xlink:href="#MJX-14-TEX-S4-23A9" transform="translate(0, -551)"></use><use xlink:href="#MJX-14-TEX-S4-23A8" transform="translate(0, 0)"></use><svg width="889" height="81" y="1060" x="0" viewBox="0 14.3 889 81"><use xlink:href="#MJX-14-TEX-S4-23AA" transform="scale(1, 0.398)"></use></svg><svg width="889" height="81" y="-641" x="0" viewBox="0 14.3 889 81"><use xlink:href="#MJX-14-TEX-S4-23AA" transform="scale(1, 0.398)"></use></svg></g><g data-mml-node="mtable" transform="translate(889, 0)"><g data-mml-node="mtr" transform="translate(0, 1200)"><g data-mml-node="mtd"><g data-mml-node="mtext"><text data-variant="normal" transform="matrix(1 0 0 -1 0 0)" font-size="884px" font-family="serif">磁</text><text data-variant="normal" transform="translate(884, 0) matrix(1 0 0 -1 0 0)" font-size="884px" font-family="serif">带</text></g></g></g><g data-mml-node="mtr" transform="translate(0, 0)"><g data-mml-node="mtd"><g data-mml-node="mtext"><text data-variant="normal" transform="matrix(1 0 0 -1 0 0)" font-size="884px" font-family="serif">磁</text><text data-variant="normal" transform="translate(884, 0) matrix(1 0 0 -1 0 0)" font-size="884px" font-family="serif">盘</text></g></g></g><g data-mml-node="mtr" transform="translate(0, -1200)"><g data-mml-node="mtd"><g data-mml-node="mtext"><text data-variant="normal" transform="matrix(1 0 0 -1 0 0)" font-size="884px" font-family="serif">光</text><text data-variant="normal" transform="translate(884, 0) matrix(1 0 0 -1 0 0)" font-size="884px" font-family="serif">盘</text></g></g></g></g><g data-mml-node="mo" transform="translate(2657, 0)"></g></g></g></g><g data-mml-node="mtr" transform="translate(0, -6399.5)"><g data-mml-node="mtd"><g data-mml-node="mtext"><text data-variant="normal" transform="matrix(1 0 0 -1 0 0)" font-size="884px" font-family="serif">缓</text><text data-variant="normal" transform="translate(884, 0) matrix(1 0 0 -1 0 0)" font-size="884px" font-family="serif">存</text></g><g data-mml-node="mrow" transform="translate(1768, 0)"><g data-mml-node="mo"><use xlink:href="#MJX-14-TEX-N-28"></use></g><g data-mml-node="mi" transform="translate(389, 0)"><use xlink:href="#MJX-14-TEX-I-1D436"></use></g><g data-mml-node="mi" transform="translate(1149, 0)"><use xlink:href="#MJX-14-TEX-I-1D44E"></use></g><g data-mml-node="mi" transform="translate(1678, 0)"><use xlink:href="#MJX-14-TEX-I-1D450"></use></g><g data-mml-node="mi" transform="translate(2111, 0)"><use xlink:href="#MJX-14-TEX-I-210E"></use></g><g data-mml-node="mi" transform="translate(2687, 0)"><use xlink:href="#MJX-14-TEX-I-1D452"></use></g><g data-mml-node="mo" transform="translate(3153, 0)"><use xlink:href="#MJX-14-TEX-N-29"></use></g></g></g></g></g><g data-mml-node="mo" transform="translate(25291.8, 0)"></g></g></g></g></svg>